<svg xmlns="http://www.w3.org/2000/svg" xmlns:xlink="http://www.w3.org/1999/xlink" width="1080" zoomAndPan="magnify" viewBox="0 0 810 809.999993" height="1080" preserveAspectRatio="xMidYMid meet" version="1.0"><defs><g/></defs><rect x="-81" width="972" fill="#ffffff" y="-80.999999" height="971.999992" fill-opacity="1"/><rect x="-81" width="972" fill="#84644d" y="-80.999999" height="971.999992" fill-opacity="1"/><path fill="#ffffff" d="M 434.179688 591.867188 C 438.933594 569.769531 438.023438 548.730469 432.308594 523.75 C 458.757812 525.972656 484.09375 510.449219 491.628906 485.617188 C 492.640625 481.21875 490.71875 478.183594 489.199219 477.273438 C 483.183594 473.785156 475.292969 469.636719 470.488281 466.554688 C 463.207031 429.992188 451.070312 422.40625 425.277344 410.773438 L 425.179688 410.722656 C 422.597656 409.457031 421.636719 406.929688 421.738281 404.554688 L 422.496094 389.585938 C 422.851562 383.058594 420.574219 381.089844 415.265625 381.542969 C 323.53125 397.472656 347.753906 493.355469 308.863281 531.386719 C 308.863281 531.386719 307.851562 477.527344 320.089844 434.894531 C 332.328125 392.265625 354.175781 388.773438 353.265625 357.066406 C 350.6875 341.742188 345.730469 330.316406 338.398438 323.589844 C 300.316406 288.746094 247.523438 281.867188 246.511719 213.394531 C 246.359375 202.371094 271.59375 206.921875 290.910156 206.972656 C 310.230469 207.023438 333.949219 197.160156 353.972656 178.601562 C 374 160.09375 433.472656 164.140625 470.238281 177.289062 C 507 190.4375 564.703125 261.691406 555.296875 277.621094 C 545.890625 293.5 484.09375 329.457031 474.988281 330.921875 C 465.835938 332.386719 446.214844 305.230469 457.441406 277.417969 C 468.667969 249.605469 468.667969 239.84375 464.066406 225.632812 C 459.414062 211.472656 451.726562 204.191406 451.726562 204.191406 C 451.726562 204.191406 466.796875 229.929688 449.605469 268.417969 C 432.460938 306.902344 457.847656 349.835938 466.746094 348.066406 C 475.648438 346.347656 508.621094 328.695312 508.621094 328.695312 C 508.621094 328.695312 527.332031 420.683594 560.101562 468.375 C 566.523438 477.730469 578.40625 491.6875 593.328125 508.679688 C 630.191406 467.261719 653.757812 413.503906 656.84375 353.78125 C 664.125 214.355469 556.964844 95.464844 417.492188 88.230469 C 278.015625 81 159.125 188.160156 151.890625 327.632812 C 145.875 443.644531 219.050781 545.445312 324.085938 580.539062 C 345.328125 587.621094 367.832031 592.019531 391.296875 593.234375 C 407.226562 594.09375 421.585938 593.03125 434.179688 591.867188 Z M 369.953125 212.6875 C 376.679688 213.039062 381.890625 218.804688 381.535156 225.53125 C 381.179688 232.257812 375.414062 237.464844 368.691406 237.113281 C 361.964844 236.757812 356.753906 230.992188 357.109375 224.265625 C 357.464844 217.542969 363.226562 212.332031 369.953125 212.6875 Z M 435.949219 477.578125 C 429.628906 477.222656 424.773438 471.863281 425.128906 465.542969 C 425.429688 459.21875 430.839844 454.367188 437.164062 454.71875 C 443.484375 455.023438 448.339844 460.433594 447.984375 466.753906 C 447.632812 473.027344 442.269531 477.882812 435.949219 477.578125 Z M 435.949219 477.578125 " fill-opacity="1" fill-rule="evenodd"/><g fill="#ffffff" fill-opacity="1"><g transform="translate(195.798763, 688.784296)"><g><path d="M 4.359375 -43.515625 L 23.3125 -43.515625 C 28.863281 -43.515625 33.171875 -42.195312 36.234375 -39.5625 C 39.304688 -36.9375 40.84375 -33.195312 40.84375 -28.34375 C 40.84375 -23.25 39.304688 -19.289062 36.234375 -16.46875 C 33.171875 -13.65625 28.863281 -12.25 23.3125 -12.25 L 15.421875 -12.25 L 15.421875 0 L 4.359375 0 Z M 15.421875 -34.8125 L 15.421875 -20.953125 L 22.75 -20.953125 C 25.195312 -20.953125 27.082031 -21.550781 28.40625 -22.75 C 29.738281 -23.957031 30.40625 -25.703125 30.40625 -27.984375 C 30.40625 -30.210938 29.738281 -31.90625 28.40625 -33.0625 C 27.082031 -34.226562 25.195312 -34.8125 22.75 -34.8125 Z M 15.421875 -34.8125 "/></g></g></g><g fill="#ffffff" fill-opacity="1"><g transform="translate(256.721578, 688.784296)"><g><path d="M 38.421875 -34.8125 L 15.421875 -34.8125 L 15.421875 -26.171875 L 36.1875 -26.171875 L 36.1875 -17.46875 L 15.421875 -17.46875 L 15.421875 -8.703125 L 39.109375 -8.703125 L 39.109375 0 L 4.359375 0 L 4.359375 -43.515625 L 38.421875 -43.515625 Z M 38.421875 -34.8125 "/></g></g></g><g fill="#ffffff" fill-opacity="1"><g transform="translate(317.271474, 688.784296)"><g><path d="M 37.609375 -34.625 L 24.5 -34.625 L 24.5 0 L 13.421875 0 L 13.421875 -34.625 L 0.4375 -34.625 L 0.4375 -43.578125 L 37.609375 -43.578125 Z M 37.609375 -34.625 "/></g></g></g><g fill="#ffffff" fill-opacity="1"><g transform="translate(373.905688, 688.784296)"><g><path d="M 52.15625 0 L 42.40625 0 L 42.34375 -28.28125 L 31.890625 -4.359375 L 24.6875 -4.359375 L 14.234375 -28.28125 L 14.234375 0 L 4.359375 0 L 4.359375 -43.578125 L 16.46875 -43.578125 L 28.28125 -17.65625 L 40.09375 -43.578125 L 52.15625 -43.578125 Z M 52.15625 0 "/></g></g></g><g fill="#ffffff" fill-opacity="1"><g transform="translate(449.123898, 688.784296)"><g><path d="M 33.265625 -8.015625 L 14.234375 -8.015625 L 11.0625 0 L -0.3125 0 L 18.46875 -43.515625 L 29.84375 -43.515625 L 48.1875 0 L 36.375 0 Z M 30.03125 -16.40625 L 23.8125 -32.515625 L 17.46875 -16.40625 Z M 30.03125 -16.40625 "/></g></g></g><g fill="#ffffff" fill-opacity="1"><g transform="translate(515.640561, 688.784296)"><g><path d="M 37.609375 -34.625 L 24.5 -34.625 L 24.5 0 L 13.421875 0 L 13.421875 -34.625 L 0.4375 -34.625 L 0.4375 -43.578125 L 37.609375 -43.578125 Z M 37.609375 -34.625 "/></g></g></g><g fill="#ffffff" fill-opacity="1"><g transform="translate(572.274754, 688.784296)"><g><path d="M 38.421875 -34.8125 L 15.421875 -34.8125 L 15.421875 -26.171875 L 36.1875 -26.171875 L 36.1875 -17.46875 L 15.421875 -17.46875 L 15.421875 -8.703125 L 39.109375 -8.703125 L 39.109375 0 L 4.359375 0 L 4.359375 -43.515625 L 38.421875 -43.515625 Z M 38.421875 -34.8125 "/></g></g></g></svg>