<svg xmlns="http://www.w3.org/2000/svg" xmlns:xlink="http://www.w3.org/1999/xlink" width="1080" zoomAndPan="magnify" viewBox="0 0 810 809.999993" height="1080" preserveAspectRatio="xMidYMid meet" version="1.0"><defs><g/></defs><path fill="#ffffff" d="M 434.179688 571.617188 C 438.933594 549.519531 438.023438 528.480469 432.308594 503.5 C 458.757812 505.722656 484.09375 490.199219 491.628906 465.367188 C 492.640625 460.96875 490.71875 457.933594 489.199219 457.023438 C 483.183594 453.535156 475.292969 449.386719 470.488281 446.304688 C 463.207031 409.742188 451.070312 402.15625 425.277344 390.523438 L 425.179688 390.472656 C 422.597656 389.207031 421.636719 386.679688 421.738281 384.304688 L 422.496094 369.335938 C 422.851562 362.808594 420.574219 360.839844 415.265625 361.292969 C 323.53125 377.222656 347.753906 473.105469 308.863281 511.136719 C 308.863281 511.136719 307.851562 457.277344 320.089844 414.644531 C 332.328125 372.015625 354.175781 368.523438 353.265625 336.816406 C 350.6875 321.492188 345.730469 310.066406 338.398438 303.339844 C 300.316406 268.496094 247.523438 261.617188 246.511719 193.144531 C 246.359375 182.121094 271.59375 186.671875 290.910156 186.722656 C 310.230469 186.773438 333.949219 176.910156 353.972656 158.351562 C 374 139.84375 433.472656 143.890625 470.238281 157.039062 C 507 170.1875 564.703125 241.441406 555.296875 257.371094 C 545.890625 273.25 484.09375 309.207031 474.988281 310.671875 C 465.835938 312.136719 446.214844 284.980469 457.441406 257.167969 C 468.667969 229.355469 468.667969 219.59375 464.066406 205.382812 C 459.414062 191.222656 451.726562 183.941406 451.726562 183.941406 C 451.726562 183.941406 466.796875 209.679688 449.605469 248.167969 C 432.460938 286.652344 457.847656 329.585938 466.746094 327.816406 C 475.648438 326.097656 508.621094 308.445312 508.621094 308.445312 C 508.621094 308.445312 527.332031 400.433594 560.101562 448.125 C 566.523438 457.480469 578.40625 471.4375 593.328125 488.429688 C 630.191406 447.011719 653.757812 393.253906 656.84375 333.53125 C 664.125 194.105469 556.964844 75.214844 417.492188 67.980469 C 278.015625 60.75 159.125 167.910156 151.890625 307.382812 C 145.875 423.394531 219.050781 525.195312 324.085938 560.289062 C 345.328125 567.371094 367.832031 571.769531 391.296875 572.984375 C 407.226562 573.84375 421.585938 572.78125 434.179688 571.617188 Z M 369.953125 192.4375 C 376.679688 192.789062 381.890625 198.554688 381.535156 205.28125 C 381.179688 212.007812 375.414062 217.214844 368.691406 216.863281 C 361.964844 216.507812 356.753906 210.742188 357.109375 204.019531 C 357.464844 197.292969 363.226562 192.082031 369.953125 192.4375 Z M 435.949219 457.328125 C 429.628906 456.972656 424.773438 451.613281 425.128906 445.292969 C 425.429688 438.96875 430.839844 434.117188 437.164062 434.46875 C 443.484375 434.773438 448.339844 440.183594 447.984375 446.503906 C 447.632812 452.777344 442.269531 457.632812 435.949219 457.328125 Z M 435.949219 457.328125 " fill-opacity="1" fill-rule="evenodd"/><g fill="#ffffff" fill-opacity="1"><g transform="translate(195.798763, 668.534297)"><g><path d="M 4.359375 -43.515625 L 23.3125 -43.515625 C 28.863281 -43.515625 33.171875 -42.195312 36.234375 -39.5625 C 39.304688 -36.9375 40.84375 -33.195312 40.84375 -28.34375 C 40.84375 -23.25 39.304688 -19.289062 36.234375 -16.46875 C 33.171875 -13.65625 28.863281 -12.25 23.3125 -12.25 L 15.421875 -12.25 L 15.421875 0 L 4.359375 0 Z M 15.421875 -34.8125 L 15.421875 -20.953125 L 22.75 -20.953125 C 25.195312 -20.953125 27.082031 -21.550781 28.40625 -22.75 C 29.738281 -23.957031 30.40625 -25.703125 30.40625 -27.984375 C 30.40625 -30.210938 29.738281 -31.90625 28.40625 -33.0625 C 27.082031 -34.226562 25.195312 -34.8125 22.75 -34.8125 Z M 15.421875 -34.8125 "/></g></g></g><g fill="#ffffff" fill-opacity="1"><g transform="translate(256.721578, 668.534297)"><g><path d="M 38.421875 -34.8125 L 15.421875 -34.8125 L 15.421875 -26.171875 L 36.1875 -26.171875 L 36.1875 -17.46875 L 15.421875 -17.46875 L 15.421875 -8.703125 L 39.109375 -8.703125 L 39.109375 0 L 4.359375 0 L 4.359375 -43.515625 L 38.421875 -43.515625 Z M 38.421875 -34.8125 "/></g></g></g><g fill="#ffffff" fill-opacity="1"><g transform="translate(317.271474, 668.534297)"><g><path d="M 37.609375 -34.625 L 24.5 -34.625 L 24.5 0 L 13.421875 0 L 13.421875 -34.625 L 0.4375 -34.625 L 0.4375 -43.578125 L 37.609375 -43.578125 Z M 37.609375 -34.625 "/></g></g></g><g fill="#ffffff" fill-opacity="1"><g transform="translate(373.905688, 668.534297)"><g><path d="M 52.15625 0 L 42.40625 0 L 42.34375 -28.28125 L 31.890625 -4.359375 L 24.6875 -4.359375 L 14.234375 -28.28125 L 14.234375 0 L 4.359375 0 L 4.359375 -43.578125 L 16.46875 -43.578125 L 28.28125 -17.65625 L 40.09375 -43.578125 L 52.15625 -43.578125 Z M 52.15625 0 "/></g></g></g><g fill="#ffffff" fill-opacity="1"><g transform="translate(449.123898, 668.534297)"><g><path d="M 33.265625 -8.015625 L 14.234375 -8.015625 L 11.0625 0 L -0.3125 0 L 18.46875 -43.515625 L 29.84375 -43.515625 L 48.1875 0 L 36.375 0 Z M 30.03125 -16.40625 L 23.8125 -32.515625 L 17.46875 -16.40625 Z M 30.03125 -16.40625 "/></g></g></g><g fill="#ffffff" fill-opacity="1"><g transform="translate(515.640561, 668.534297)"><g><path d="M 37.609375 -34.625 L 24.5 -34.625 L 24.5 0 L 13.421875 0 L 13.421875 -34.625 L 0.4375 -34.625 L 0.4375 -43.578125 L 37.609375 -43.578125 Z M 37.609375 -34.625 "/></g></g></g><g fill="#ffffff" fill-opacity="1"><g transform="translate(572.274754, 668.534297)"><g><path d="M 38.421875 -34.8125 L 15.421875 -34.8125 L 15.421875 -26.171875 L 36.1875 -26.171875 L 36.1875 -17.46875 L 15.421875 -17.46875 L 15.421875 -8.703125 L 39.109375 -8.703125 L 39.109375 0 L 4.359375 0 L 4.359375 -43.515625 L 38.421875 -43.515625 Z M 38.421875 -34.8125 "/></g></g></g></svg>