<svg xmlns="http://www.w3.org/2000/svg" xmlns:xlink="http://www.w3.org/1999/xlink" width="1080" zoomAndPan="magnify" viewBox="0 0 810 809.999993" height="1080" preserveAspectRatio="xMidYMid meet" version="1.0"><path fill="#ffffff" d="M 650.039062 652.046875 C 647.578125 674.414062 624.320312 689.210938 588.945312 711.6875 C 527.554688 750.714844 466.238281 754.851562 440.070312 756.417969 C 359.035156 761.226562 299.394531 736.289062 268.308594 722.871094 C 215.226562 699.945312 188.6875 688.503906 184.328125 666.957031 C 173.742188 614.625 293.953125 519.3125 419.085938 517.859375 C 536.796875 516.480469 656.003906 597.625 650.039062 652.046875 Z M 650.039062 652.046875 " fill-opacity="1" fill-rule="nonzero"/><path fill="#ffffff" d="M 749.039062 404.171875 C 748.035156 543.542969 660.179688 672.324219 528.039062 719.664062 C 395.898438 767.003906 243.59375 725.515625 153.5 616.226562 C 64.75 508.613281 54.125 351.390625 125.546875 232.035156 C 197.597656 111.601562 342.113281 46.890625 479.953125 75.21875 C 635.5 107.164062 747.886719 245.863281 749.003906 404.171875 C 749.191406 428.136719 786.464844 428.214844 786.277344 404.171875 C 785.160156 249.070312 688.058594 108.878906 542.574219 54.421875 C 396.90625 -0.0742188 226.039062 45.847656 127.109375 165.722656 C 27.699219 286.234375 12.828125 460.492188 93.339844 595.09375 C 173.480469 729.058594 331.824219 799.058594 484.910156 770.023438 C 658.796875 737.035156 785.011719 579.773438 786.277344 404.171875 C 786.464844 380.164062 749.191406 380.164062 749.003906 404.171875 Z M 749.039062 404.171875 " fill-opacity="1" fill-rule="nonzero"/><path fill="#ffffff" d="M 565.128906 314.898438 C 565.128906 317.429688 565.066406 319.964844 564.941406 322.492188 C 564.816406 325.023438 564.628906 327.550781 564.382812 330.070312 C 564.132812 332.59375 563.824219 335.105469 563.453125 337.613281 C 563.078125 340.117188 562.648438 342.613281 562.152344 345.097656 C 561.660156 347.582031 561.101562 350.054688 560.488281 352.511719 C 559.871094 354.96875 559.195312 357.410156 558.460938 359.835938 C 557.726562 362.257812 556.929688 364.664062 556.078125 367.050781 C 555.222656 369.433594 554.3125 371.796875 553.34375 374.136719 C 552.375 376.476562 551.347656 378.792969 550.265625 381.085938 C 549.179688 383.375 548.042969 385.636719 546.847656 387.871094 C 545.652344 390.105469 544.40625 392.308594 543.101562 394.480469 C 541.800781 396.65625 540.445312 398.792969 539.039062 400.902344 C 537.628906 403.007812 536.171875 405.078125 534.664062 407.113281 C 533.152344 409.148438 531.597656 411.144531 529.988281 413.101562 C 528.382812 415.0625 526.726562 416.980469 525.027344 418.855469 C 523.324219 420.734375 521.578125 422.566406 519.785156 424.359375 C 517.996094 426.152344 516.160156 427.898438 514.285156 429.597656 C 512.40625 431.300781 510.488281 432.953125 508.53125 434.5625 C 506.570312 436.167969 504.574219 437.726562 502.539062 439.234375 C 500.503906 440.746094 498.433594 442.203125 496.328125 443.609375 C 494.222656 445.019531 492.082031 446.375 489.910156 447.675781 C 487.734375 448.976562 485.53125 450.226562 483.296875 451.421875 C 481.0625 452.617188 478.800781 453.753906 476.511719 454.835938 C 474.222656 455.921875 471.90625 456.945312 469.566406 457.917969 C 467.222656 458.886719 464.863281 459.796875 462.476562 460.652344 C 460.089844 461.503906 457.6875 462.296875 455.261719 463.035156 C 452.835938 463.769531 450.394531 464.445312 447.9375 465.0625 C 445.480469 465.675781 443.011719 466.230469 440.523438 466.726562 C 438.039062 467.21875 435.546875 467.652344 433.039062 468.023438 C 430.53125 468.394531 428.019531 468.707031 425.5 468.953125 C 422.976562 469.203125 420.449219 469.390625 417.921875 469.511719 C 415.390625 469.636719 412.859375 469.699219 410.324219 469.699219 C 407.792969 469.699219 405.257812 469.636719 402.730469 469.511719 C 400.199219 469.390625 397.671875 469.203125 395.152344 468.953125 C 392.628906 468.707031 390.117188 468.394531 387.609375 468.023438 C 385.105469 467.652344 382.609375 467.21875 380.125 466.726562 C 377.640625 466.230469 375.167969 465.675781 372.710938 465.0625 C 370.253906 464.445312 367.8125 463.769531 365.386719 463.035156 C 362.964844 462.296875 360.558594 461.503906 358.171875 460.652344 C 355.789062 459.796875 353.425781 458.886719 351.085938 457.917969 C 348.742188 456.945312 346.429688 455.921875 344.136719 454.835938 C 341.847656 453.753906 339.585938 452.617188 337.351562 451.421875 C 335.117188 450.226562 332.914062 448.976562 330.742188 447.675781 C 328.566406 446.375 326.429688 445.019531 324.320312 443.609375 C 322.214844 442.203125 320.144531 440.746094 318.109375 439.234375 C 316.074219 437.726562 314.078125 436.167969 312.121094 434.5625 C 310.160156 432.953125 308.242188 431.300781 306.367188 429.597656 C 304.488281 427.898438 302.65625 426.152344 300.863281 424.359375 C 299.070312 422.566406 297.324219 420.734375 295.625 418.855469 C 293.921875 416.980469 292.269531 415.0625 290.660156 413.101562 C 289.054688 411.144531 287.496094 409.148438 285.988281 407.113281 C 284.476562 405.078125 283.019531 403.007812 281.613281 400.902344 C 280.203125 398.792969 278.847656 396.65625 277.546875 394.480469 C 276.242188 392.308594 274.996094 390.105469 273.800781 387.871094 C 272.605469 385.636719 271.46875 383.375 270.386719 381.085938 C 269.300781 378.792969 268.277344 376.476562 267.304688 374.136719 C 266.335938 371.796875 265.425781 369.433594 264.570312 367.050781 C 263.71875 364.664062 262.921875 362.257812 262.1875 359.835938 C 261.453125 357.410156 260.777344 354.96875 260.160156 352.511719 C 259.546875 350.054688 258.992188 347.582031 258.496094 345.097656 C 258.003906 342.613281 257.570312 340.117188 257.199219 337.613281 C 256.828125 335.105469 256.515625 332.59375 256.269531 330.070312 C 256.019531 327.550781 255.832031 325.023438 255.710938 322.492188 C 255.585938 319.964844 255.523438 317.429688 255.523438 314.898438 C 255.523438 312.363281 255.585938 309.832031 255.710938 307.300781 C 255.832031 304.769531 256.019531 302.246094 256.269531 299.722656 C 256.515625 297.203125 256.828125 294.6875 257.199219 292.183594 C 257.570312 289.675781 258.003906 287.183594 258.496094 284.695312 C 258.992188 282.210938 259.546875 279.742188 260.160156 277.285156 C 260.777344 274.824219 261.453125 272.386719 262.1875 269.960938 C 262.921875 267.535156 263.71875 265.132812 264.570312 262.746094 C 265.425781 260.359375 266.335938 257.996094 267.304688 255.65625 C 268.277344 253.316406 269.300781 251 270.386719 248.710938 C 271.46875 246.421875 272.605469 244.160156 273.800781 241.925781 C 274.996094 239.691406 276.242188 237.484375 277.546875 235.3125 C 278.847656 233.140625 280.203125 231 281.613281 228.894531 C 283.019531 226.789062 284.476562 224.71875 285.988281 222.683594 C 287.496094 220.648438 289.054688 218.652344 290.660156 216.691406 C 292.269531 214.734375 293.921875 212.816406 295.625 210.9375 C 297.324219 209.0625 299.070312 207.226562 300.863281 205.4375 C 302.65625 203.644531 304.488281 201.898438 306.367188 200.195312 C 308.242188 198.496094 310.160156 196.839844 312.121094 195.234375 C 314.078125 193.625 316.074219 192.070312 318.109375 190.558594 C 320.144531 189.050781 322.214844 187.589844 324.320312 186.183594 C 326.429688 184.777344 328.566406 183.421875 330.742188 182.121094 C 332.914062 180.816406 335.117188 179.570312 337.351562 178.375 C 339.585938 177.179688 341.847656 176.042969 344.136719 174.957031 C 346.429688 173.875 348.742188 172.847656 351.085938 171.878906 C 353.425781 170.910156 355.789062 169.996094 358.171875 169.144531 C 360.558594 168.289062 362.964844 167.496094 365.386719 166.761719 C 367.8125 166.027344 370.253906 165.351562 372.710938 164.734375 C 375.167969 164.117188 377.640625 163.5625 380.125 163.070312 C 382.609375 162.574219 385.105469 162.144531 387.609375 161.769531 C 390.117188 161.398438 392.628906 161.089844 395.152344 160.839844 C 397.671875 160.59375 400.199219 160.40625 402.730469 160.28125 C 405.257812 160.15625 407.792969 160.09375 410.324219 160.09375 C 412.859375 160.09375 415.390625 160.15625 417.921875 160.28125 C 420.449219 160.40625 422.976562 160.59375 425.5 160.839844 C 428.019531 161.089844 430.53125 161.398438 433.039062 161.769531 C 435.546875 162.140625 438.039062 162.574219 440.523438 163.070312 C 443.011719 163.5625 445.480469 164.117188 447.9375 164.734375 C 450.394531 165.351562 452.835938 166.027344 455.261719 166.761719 C 457.6875 167.496094 460.089844 168.289062 462.476562 169.144531 C 464.863281 169.996094 467.222656 170.910156 469.566406 171.878906 C 471.90625 172.847656 474.222656 173.875 476.511719 174.957031 C 478.800781 176.042969 481.0625 177.179688 483.296875 178.375 C 485.53125 179.570312 487.734375 180.816406 489.910156 182.121094 C 492.082031 183.421875 494.222656 184.777344 496.328125 186.183594 C 498.433594 187.589844 500.503906 189.050781 502.539062 190.558594 C 504.574219 192.070312 506.570312 193.625 508.53125 195.234375 C 510.488281 196.839844 512.40625 198.496094 514.285156 200.195312 C 516.160156 201.898438 517.996094 203.644531 519.785156 205.4375 C 521.578125 207.226562 523.324219 209.0625 525.027344 210.9375 C 526.726562 212.816406 528.382812 214.734375 529.988281 216.691406 C 531.597656 218.652344 533.152344 220.648438 534.664062 222.683594 C 536.171875 224.71875 537.628906 226.789062 539.039062 228.894531 C 540.445312 231 541.800781 233.140625 543.101562 235.3125 C 544.40625 237.484375 545.652344 239.691406 546.847656 241.925781 C 548.042969 244.160156 549.179688 246.421875 550.265625 248.710938 C 551.347656 251 552.375 253.316406 553.34375 255.65625 C 554.3125 257.996094 555.222656 260.359375 556.078125 262.746094 C 556.929688 265.132812 557.726562 267.535156 558.460938 269.960938 C 559.195312 272.386719 559.871094 274.824219 560.488281 277.285156 C 561.101562 279.742188 561.660156 282.210938 562.152344 284.695312 C 562.648438 287.183594 563.078125 289.675781 563.453125 292.183594 C 563.824219 294.6875 564.132812 297.203125 564.382812 299.722656 C 564.628906 302.246094 564.816406 304.769531 564.941406 307.300781 C 565.066406 309.832031 565.128906 312.363281 565.128906 314.898438 Z M 565.128906 314.898438 " fill-opacity="1" fill-rule="nonzero"/></svg>